<svg width="80" height="75" viewBox="0 0 80 75" fill="none" xmlns="http://www.w3.org/2000/svg">
<path d="M21.0081 43.7553C18.9154 43.7553 17.0377 43.2393 15.375 42.2073C13.7124 41.1466 12.3937 39.7276 11.419 37.9503C10.473 36.1442 10 34.1089 10 31.8442C10 29.5795 10.516 27.5442 11.548 25.7381C12.6087 23.9321 14.0277 22.5131 15.8051 21.4811C17.6111 20.4204 19.6321 19.8901 21.8681 19.8901C24.1041 19.8901 26.1108 20.4204 27.8882 21.4811C29.6655 22.5131 31.0702 23.9321 32.1022 25.7381C33.1629 27.5442 33.6932 29.5795 33.6932 31.8442H32.0162C32.0162 34.1089 31.5289 36.1442 30.5542 37.9503C29.6082 39.7276 28.3038 41.1466 26.6412 42.2073C24.9785 43.2393 23.1008 43.7553 21.0081 43.7553ZM21.8681 39.8853C23.3301 39.8853 24.6345 39.5413 25.7811 38.8533C26.9278 38.1366 27.8308 37.1763 28.4902 35.9722C29.1495 34.7396 29.4792 33.3635 29.4792 31.8442C29.4792 30.2962 29.1495 28.9202 28.4902 27.7162C27.8308 26.4835 26.9278 25.5231 25.7811 24.8351C24.6345 24.1185 23.3301 23.7601 21.8681 23.7601C20.4348 23.7601 19.1304 24.1185 17.9551 24.8351C16.8084 25.5231 15.8911 26.4835 15.203 27.7162C14.5437 28.9202 14.214 30.2962 14.214 31.8442C14.214 33.3635 14.5437 34.7396 15.203 35.9722C15.8911 37.1763 16.8084 38.1366 17.9551 38.8533C19.1304 39.5413 20.4348 39.8853 21.8681 39.8853ZM31.5002 43.6263C30.8695 43.6263 30.3392 43.4256 29.9092 43.0243C29.5078 42.5943 29.3072 42.064 29.3072 41.4333V34.8542L30.1242 30.2962L33.6932 31.8442V41.4333C33.6932 42.064 33.4782 42.5943 33.0482 43.0243C32.6469 43.4256 32.1309 43.6263 31.5002 43.6263Z" fill="#EBF2FF"/>
<path d="M43.6609 43.5833C42.3996 43.5833 41.2816 43.2393 40.3069 42.5513C39.3322 41.8633 38.5725 40.9316 38.0279 39.7563C37.4832 38.5523 37.2109 37.1763 37.2109 35.6282V12.15C37.2109 11.5193 37.4115 11.0033 37.8129 10.602C38.2142 10.2007 38.7302 10 39.3609 10C39.9915 10 40.5075 10.2007 40.9089 10.602C41.3102 11.0033 41.5109 11.5193 41.5109 12.15V35.6282C41.5109 36.6889 41.7116 37.5633 42.1129 38.2513C42.5142 38.9393 43.0302 39.2833 43.6609 39.2833H44.7359C45.3093 39.2833 45.7679 39.4839 46.1119 39.8853C46.4846 40.2866 46.6709 40.8026 46.6709 41.4333C46.6709 42.064 46.3986 42.58 45.8539 42.9813C45.3093 43.3826 44.6069 43.5833 43.7469 43.5833H43.6609Z" fill="#EBF2FF"/>
<path d="M57.3149 43.7553C55.2222 43.7553 53.3445 43.2393 51.6818 42.2073C50.0191 41.1466 48.7005 39.7276 47.7258 37.9503C46.7798 36.1442 46.3068 34.1089 46.3068 31.8442C46.3068 29.5795 46.8228 27.5442 47.8548 25.7381C48.9155 23.9321 50.3345 22.5131 52.1118 21.4811C53.9178 20.4204 55.9389 19.8901 58.1749 19.8901C60.4109 19.8901 62.4176 20.4204 64.1949 21.4811C65.9723 22.5131 67.377 23.9321 68.409 25.7381C69.4697 27.5442 70 29.5795 70 31.8442H68.323C68.323 34.1089 67.8356 36.1442 66.861 37.9503C65.915 39.7276 64.6106 41.1466 62.9479 42.2073C61.2853 43.2393 59.4076 43.7553 57.3149 43.7553ZM58.1749 39.8853C59.6369 39.8853 60.9412 39.5413 62.0879 38.8533C63.2346 38.1366 64.1376 37.1763 64.797 35.9722C65.4563 34.7396 65.786 33.3635 65.786 31.8442C65.786 30.2962 65.4563 28.9202 64.797 27.7162C64.1376 26.4835 63.2346 25.5231 62.0879 24.8351C60.9412 24.1185 59.6369 23.7601 58.1749 23.7601C56.7415 23.7601 55.4372 24.1185 54.2619 24.8351C53.1152 25.5231 52.1978 26.4835 51.5098 27.7162C50.8505 28.9202 50.5208 30.2962 50.5208 31.8442C50.5208 33.3635 50.8505 34.7396 51.5098 35.9722C52.1978 37.1763 53.1152 38.1366 54.2619 38.8533C55.4372 39.5413 56.7415 39.8853 58.1749 39.8853ZM67.807 43.6263C67.1763 43.6263 66.646 43.4256 66.216 43.0243C65.8146 42.5943 65.614 42.064 65.614 41.4333V34.8542L66.431 30.2962L70 31.8442V41.4333C70 42.064 69.785 42.5943 69.355 43.0243C68.9537 43.4256 68.4377 43.6263 67.807 43.6263Z" fill="#EBF2FF"/>
<path d="M22.6747 64.4993C22.4382 64.4993 22.2394 64.4187 22.0781 64.2574C21.9169 64.0962 21.8362 63.8973 21.8362 63.6608V52.7441C21.8362 52.4968 21.9169 52.298 22.0781 52.1475C22.2394 51.9862 22.4382 51.9056 22.6747 51.9056H25.8998C26.706 51.9056 27.4209 52.083 28.0444 52.4377C28.6679 52.7925 29.1517 53.287 29.4957 53.9212C29.8504 54.5447 30.0278 55.265 30.0278 56.082C30.0278 56.8668 29.8504 57.5655 29.4957 58.1783C29.1517 58.791 28.6679 59.2694 28.0444 59.6134C27.4209 59.9574 26.706 60.1294 25.8998 60.1294H23.5132V63.6608C23.5132 63.8973 23.4326 64.0962 23.2714 64.2574C23.1209 64.4187 22.922 64.4993 22.6747 64.4993ZM23.5132 58.5814H25.8998C26.3943 58.5814 26.8297 58.4739 27.2059 58.2589C27.5822 58.0439 27.8778 57.7483 28.0928 57.372C28.3078 56.9958 28.4153 56.5658 28.4153 56.082C28.4153 55.566 28.3078 55.1145 28.0928 54.7275C27.8778 54.3297 27.5822 54.018 27.2059 53.7922C26.8297 53.5665 26.3943 53.4536 25.8998 53.4536H23.5132V58.5814Z" fill="#EBF2FF"/>
<path d="M39.3167 64.6606C38.3706 64.6606 37.5053 64.5047 36.7205 64.1929C35.9357 63.8704 35.2585 63.4243 34.6887 62.8546C34.1297 62.2741 33.6943 61.5914 33.3826 60.8067C33.0708 60.0112 32.915 59.1404 32.915 58.1944C32.915 57.2484 33.0708 56.383 33.3826 55.5982C33.6943 54.8135 34.1297 54.1362 34.6887 53.5665C35.2585 52.986 35.9357 52.5398 36.7205 52.2281C37.5053 51.9056 38.3706 51.7443 39.3167 51.7443C40.2627 51.7443 41.1227 51.9056 41.8967 52.2281C42.6814 52.5398 43.3587 52.986 43.9284 53.5665C44.4982 54.1362 44.939 54.8135 45.2507 55.5982C45.5625 56.383 45.7183 57.2484 45.7183 58.1944C45.7183 59.1404 45.5625 60.0112 45.2507 60.8067C44.939 61.5914 44.4982 62.2741 43.9284 62.8546C43.3587 63.4243 42.6814 63.8704 41.8967 64.1929C41.1227 64.5047 40.2627 64.6606 39.3167 64.6606ZM39.3167 63.1448C40.0154 63.1448 40.655 63.0212 41.2355 62.7739C41.8268 62.5159 42.3374 62.1666 42.7674 61.7258C43.1974 61.2743 43.5253 60.7475 43.7511 60.1455C43.9876 59.5435 44.1058 58.8931 44.1058 58.1944C44.1058 57.4956 43.9876 56.8453 43.7511 56.2432C43.5253 55.6412 43.1974 55.1199 42.7674 54.6791C42.3374 54.2276 41.8268 53.8782 41.2355 53.631C40.655 53.3837 40.0154 53.2601 39.3167 53.2601C38.6179 53.2601 37.9729 53.3837 37.3816 53.631C36.8011 53.8782 36.2959 54.2276 35.8659 54.6791C35.4466 55.1199 35.1187 55.6412 34.8822 56.2432C34.6457 56.8453 34.5275 57.4956 34.5275 58.1944C34.5275 58.8931 34.6457 59.5435 34.8822 60.1455C35.1187 60.7475 35.4466 61.2743 35.8659 61.7258C36.2959 62.1666 36.8011 62.5159 37.3816 62.7739C37.9729 63.0212 38.6179 63.1448 39.3167 63.1448Z" fill="#EBF2FF"/>
<path d="M53.9567 64.6606C53.2686 64.6606 52.6129 64.5531 51.9894 64.3381C51.3659 64.1231 50.823 63.8221 50.3607 63.4351C49.8985 63.0481 49.5599 62.6019 49.3449 62.0967C49.2374 61.8709 49.2374 61.6613 49.3449 61.4678C49.4631 61.2743 49.6566 61.1507 49.9254 61.0969C50.1189 61.0539 50.307 61.0862 50.4897 61.1937C50.6832 61.2904 50.8284 61.4409 50.9251 61.6452C51.0541 61.9139 51.2637 62.1612 51.554 62.3869C51.855 62.6127 52.2151 62.7954 52.6344 62.9352C53.0536 63.0749 53.4944 63.1448 53.9567 63.1448C54.4727 63.1448 54.9457 63.0642 55.3757 62.9029C55.8164 62.7417 56.1712 62.5106 56.4399 62.2096C56.7087 61.8978 56.8431 61.5162 56.8431 61.0647C56.8431 60.4949 56.6173 59.9843 56.1658 59.5328C55.725 59.0813 54.994 58.8018 53.9728 58.6943C52.6398 58.5653 51.5916 58.1729 50.8284 57.5171C50.0651 56.8614 49.6835 56.0497 49.6835 55.0822C49.6835 54.3727 49.8824 53.7707 50.2801 53.2762C50.6779 52.7817 51.2154 52.4055 51.8926 52.1475C52.5806 51.8895 53.3439 51.7605 54.1824 51.7605C54.8382 51.7605 55.4079 51.8518 55.8917 52.0346C56.3862 52.2173 56.8162 52.47 57.1817 52.7925C57.5472 53.115 57.8643 53.4966 58.1331 53.9374C58.2836 54.1739 58.3427 54.3996 58.3104 54.6146C58.2889 54.8189 58.1868 54.9801 58.0041 55.0984C57.7998 55.2274 57.5794 55.2542 57.3429 55.179C57.1064 55.1037 56.9291 54.964 56.8108 54.7597C56.6388 54.448 56.4292 54.1846 56.1819 53.9696C55.9347 53.7546 55.6444 53.588 55.3112 53.4697C54.9779 53.3407 54.5855 53.2762 54.134 53.2762C53.3385 53.2655 52.672 53.416 52.1345 53.7277C51.597 54.0287 51.3282 54.4964 51.3282 55.1306C51.3282 55.4531 51.4089 55.7649 51.5701 56.0659C51.7421 56.3561 52.0485 56.6087 52.4893 56.8238C52.9408 57.0388 53.5858 57.1893 54.4243 57.2753C55.7035 57.4043 56.6979 57.7966 57.4074 58.4524C58.1277 59.0974 58.4878 59.952 58.4878 61.0163C58.4878 61.629 58.3588 62.1612 58.1008 62.6127C57.8536 63.0642 57.5149 63.4458 57.0849 63.7576C56.6657 64.0586 56.1819 64.2843 55.6337 64.4348C55.0962 64.5853 54.5372 64.6606 53.9567 64.6606Z" fill="#EBF2FF"/>
</svg>
