<svg width="201" height="161" viewBox="0 0 201 161" fill="none" xmlns="http://www.w3.org/2000/svg">
<rect x="0.5" y="0.5" width="200" height="160" fill="white"/>
<path fill-rule="evenodd" clip-rule="evenodd" d="M50.9001 107.7H123.7C124.112 107.7 124.514 107.656 124.9 107.571C125.287 107.656 125.688 107.7 126.1 107.7H167.7C170.793 107.7 173.3 105.193 173.3 102.1C173.3 99.0072 170.793 96.5 167.7 96.5H162.9C159.807 96.5 157.3 93.9928 157.3 90.9C157.3 87.8072 159.807 85.3 162.9 85.3H178.1C181.193 85.3 183.7 82.7928 183.7 79.7C183.7 76.6072 181.193 74.1 178.1 74.1H160.5C163.593 74.1 166.1 71.5928 166.1 68.5C166.1 65.4072 163.593 62.9 160.5 62.9H109.3C112.393 62.9 114.9 60.3928 114.9 57.3C114.9 54.2072 112.393 51.7 109.3 51.7H63.7001C60.6073 51.7 58.1001 54.2072 58.1001 57.3C58.1001 60.3928 60.6073 62.9 63.7001 62.9H31.7001C28.6073 62.9 26.1001 65.4072 26.1001 68.5C26.1001 71.5928 28.6073 74.1 31.7001 74.1H51.7001C54.7929 74.1 57.3001 76.6072 57.3001 79.7C57.3001 82.7928 54.7929 85.3 51.7001 85.3H19.7001C16.6073 85.3 14.1001 87.8072 14.1001 90.9C14.1001 93.9928 16.6073 96.5 19.7001 96.5H50.9001C47.8073 96.5 45.3001 99.0072 45.3001 102.1C45.3001 105.193 47.8073 107.7 50.9001 107.7ZM181.3 107.7C184.393 107.7 186.9 105.193 186.9 102.1C186.9 99.0072 184.393 96.5 181.3 96.5C178.207 96.5 175.7 99.0072 175.7 102.1C175.7 105.193 178.207 107.7 181.3 107.7Z" fill="#F3F7FF"/>
<path d="M138.5 36.5V41.3" stroke="#75A4FE" stroke-width="2.5" stroke-linecap="round" stroke-linejoin="round"/>
<path d="M138.5 47.7V52.5" stroke="#75A4FE" stroke-width="2.5" stroke-linecap="round" stroke-linejoin="round"/>
<path d="M130.5 44.5H135.3" stroke="#75A4FE" stroke-width="2.5" stroke-linecap="round" stroke-linejoin="round"/>
<path d="M141.7 44.5H146.5" stroke="#75A4FE" stroke-width="2.5" stroke-linecap="round" stroke-linejoin="round"/>
<path d="M72.1 118.9V122.1" stroke="#75A4FE" stroke-width="2.5" stroke-linecap="round" stroke-linejoin="round"/>
<path d="M72.1 128.5V131.7" stroke="#75A4FE" stroke-width="2.5" stroke-linecap="round" stroke-linejoin="round"/>
<path d="M65.7 125.3H68.9" stroke="#75A4FE" stroke-width="2.5" stroke-linecap="round" stroke-linejoin="round"/>
<path d="M75.3 125.3H78.5" stroke="#75A4FE" stroke-width="2.5" stroke-linecap="round" stroke-linejoin="round"/>
<path fill-rule="evenodd" clip-rule="evenodd" d="M129.069 105.401C130.182 104.039 131.182 102.614 132.069 101.139C134.021 97.8954 135.428 94.4107 136.287 90.818C137.157 87.1844 137.467 83.4404 137.215 79.7237C136.996 76.4804 136.349 73.258 135.272 70.1478C134.204 67.0622 132.714 64.0872 130.8 61.312C129.66 59.6583 128.369 58.0757 126.927 56.5829C124.81 54.3912 122.488 52.5175 120.022 50.9629C117.371 49.2926 114.553 47.9907 111.641 47.0587C107.995 45.8915 104.202 45.3043 100.409 45.3C97.4572 45.2967 94.5054 45.6463 91.6219 46.35C88.3757 47.1423 85.2162 48.3834 82.2412 50.0754C79.6261 51.5627 77.1536 53.3984 74.8903 55.5837C72.0462 58.33 69.7423 61.4257 67.9809 64.7388C66.2565 67.9825 65.0519 71.4346 64.3692 74.9709C63.6658 78.6144 63.5164 82.3473 63.9231 86.0342C64.4502 90.8129 65.9114 95.5142 68.3115 99.8428C69.8472 102.613 71.7673 105.23 74.073 107.617C77.7333 111.407 82.0066 114.246 86.5835 116.128C92.1495 118.417 98.1644 119.291 104.072 118.74C109.03 118.277 113.912 116.81 118.389 114.332" fill="white"/>
<path d="M129.069 105.401C130.182 104.039 131.182 102.614 132.069 101.139C134.021 97.8954 135.428 94.4107 136.287 90.818C137.157 87.1844 137.467 83.4404 137.215 79.7237C136.996 76.4804 136.349 73.258 135.272 70.1478C134.204 67.0622 132.714 64.0872 130.8 61.312C129.66 59.6583 128.369 58.0757 126.927 56.5829C124.81 54.3912 122.488 52.5175 120.022 50.9629C117.371 49.2926 114.553 47.9907 111.641 47.0587C107.995 45.8915 104.202 45.3043 100.409 45.3C97.4572 45.2967 94.5054 45.6463 91.6219 46.35C88.3757 47.1423 85.2162 48.3834 82.2412 50.0754C79.6261 51.5627 77.1536 53.3984 74.8903 55.5837C72.0462 58.33 69.7423 61.4257 67.9809 64.7388C66.2565 67.9825 65.0519 71.4346 64.3692 74.9709C63.6658 78.6144 63.5164 82.3473 63.9231 86.0342C64.4502 90.8129 65.9114 95.5142 68.3115 99.8428C69.8472 102.613 71.7673 105.23 74.073 107.617C77.7333 111.407 82.0066 114.246 86.5835 116.128C92.1495 118.417 98.1644 119.291 104.072 118.74C109.03 118.277 113.912 116.81 118.389 114.332" stroke="#1F64E7" stroke-width="2.5" stroke-linecap="round" stroke-linejoin="round"/>
<path fill-rule="evenodd" clip-rule="evenodd" d="M121.061 112.803C123.386 111.306 125.453 109.44 126.798 107.933L121.061 112.803Z" fill="white"/>
<path d="M121.061 112.803C123.386 111.306 125.453 109.44 126.798 107.933" stroke="#1F64E7" stroke-width="2.5" stroke-linecap="round"/>
<path d="M134.1 84.1936C133.871 84.1977 133.642 84.1997 133.412 84.1997C113.209 84.1997 96.6668 68.449 95.2806 48.5C79.2 51.0365 66.8999 65.0221 66.8999 81.8948C66.8999 100.565 81.9603 115.7 100.538 115.7C118.347 115.7 132.924 101.792 134.1 84.1936Z" fill="#E8F0FE"/>
<path fill-rule="evenodd" clip-rule="evenodd" d="M87.7186 80.7983C86.74 79.8946 85.222 79.964 84.328 80.9533C83.434 81.9426 83.5027 83.4771 84.4813 84.3808L95.7765 94.8112C97.1466 96.0763 99.2718 95.9792 100.523 94.5942C100.576 94.5354 100.576 94.5354 100.626 94.4749L116.745 74.8773C117.593 73.847 117.453 72.3173 116.434 71.4607C115.415 70.604 113.902 70.7448 113.054 71.7751L97.8999 90.2L87.7186 80.7983Z" fill="white" stroke="#1F64E7" stroke-width="2.5" stroke-linecap="round"/>
<path fill-rule="evenodd" clip-rule="evenodd" d="M89.1591 52.0305C87.599 52.6158 86.075 53.327 84.6027 54.1645C82.3149 55.4658 80.1519 57.0719 78.1719 58.9839C77.3603 59.7677 76.599 60.584 75.888 61.4288M73.6881 64.3703C73.1228 65.2245 72.6025 66.1003 72.1274 66.9941C71.7764 67.6543 71.4501 68.3243 71.1485 69.0028" fill="white"/>
<path d="M89.5982 53.2008C90.2445 52.9583 90.5719 52.2378 90.3295 51.5914C90.087 50.945 89.3664 50.6176 88.72 50.8601L89.5982 53.2008ZM84.6027 54.1645L85.2207 55.251L84.6027 54.1645ZM78.1719 58.9839L77.3036 58.0847L78.1719 58.9839ZM74.9316 60.624C74.4871 61.1522 74.555 61.9407 75.0832 62.3852C75.6114 62.8297 76.3999 62.7619 76.8444 62.2337L74.9316 60.624ZM74.7305 65.0601C75.1115 64.4844 74.9536 63.7088 74.3779 63.3278C73.8022 62.9469 73.0267 63.1047 72.6457 63.6804L74.7305 65.0601ZM72.1274 66.9941L73.2311 67.5808L72.1274 66.9941ZM70.0063 68.4949C69.7258 69.1258 70.0098 69.8645 70.6406 70.145C71.2714 70.4254 72.0102 70.1414 72.2906 69.5106L70.0063 68.4949ZM88.72 50.8601C87.0987 51.4684 85.5149 52.2076 83.9847 53.0779L85.2207 55.251C86.6351 54.4465 88.0992 53.7632 89.5982 53.2008L88.72 50.8601ZM83.9847 53.0779C81.6067 54.4305 79.3595 56.0994 77.3036 58.0847L79.0402 59.8831C80.9443 58.0444 83.0231 56.501 85.2207 55.251L83.9847 53.0779ZM77.3036 58.0847C76.461 58.8985 75.6703 59.7463 74.9316 60.624L76.8444 62.2337C77.5277 61.4217 78.2597 60.6369 79.0402 59.8831L77.3036 58.0847ZM72.6457 63.6804C72.0582 64.5683 71.5174 65.4784 71.0236 66.4074L73.2311 67.5808C73.6876 66.7221 74.1874 65.8808 74.7305 65.0601L72.6457 63.6804ZM71.0236 66.4074C70.6589 67.0935 70.3198 67.7898 70.0063 68.4949L72.2906 69.5106C72.5805 68.8587 72.894 68.215 73.2311 67.5808L71.0236 66.4074Z" fill="#75A4FE"/>
</svg>
