<svg width="150" height="139" viewBox="0 0 150 139" fill="none" xmlns="http://www.w3.org/2000/svg">
<path d="M128.129 2.45467H130.764C135.597 2.45467 140.231 4.37437 143.649 7.79145C147.066 11.2085 148.985 15.8431 148.985 20.6756V40.5206C148.985 42.9364 148.026 45.2533 146.317 46.9615C144.609 48.6697 142.292 49.6294 139.877 49.6294H137.241C134.825 49.6294 132.508 48.6697 130.8 46.9615C129.092 45.2533 128.132 42.9364 128.132 40.5206V2.45467H128.129Z" fill="white"/>
<path opacity="0.5" d="M143.356 21.1477V40.2862C143.356 44.7904 139.753 48.5779 134.984 49.4452C135.667 49.5705 136.359 49.6333 137.054 49.6327C142.79 49.6327 147.482 45.4266 147.482 40.2862V21.1477C147.482 10.8234 138.145 2.45467 126.629 2.45467V2.82304C136.173 4.54098 143.356 12.0926 143.356 21.1477Z" fill="#D9E2EF"/>
<path d="M138.879 51.1933H136.243C133.295 51.1897 130.47 50.0172 128.385 47.933C126.301 45.8487 125.129 43.0228 125.125 40.0752V0H129.77C135.134 0.00531942 140.276 2.13841 144.069 5.93116C147.862 9.7239 149.995 14.8664 150 20.2302V40.0752C149.996 43.0234 148.823 45.8498 146.738 47.9342C144.653 50.0185 141.827 51.1906 138.879 51.1933ZM129.144 4.01857V40.0752C129.146 41.9573 129.895 43.7616 131.226 45.0924C132.557 46.4232 134.361 47.1721 136.243 47.1747H138.879C140.761 47.1721 142.565 46.4232 143.896 45.0924C145.227 43.7616 145.975 41.9573 145.978 40.0752V20.2302C145.974 15.9325 144.265 11.8121 141.226 8.77292C138.187 5.73371 134.067 4.02389 129.77 4.01857H129.144Z" fill="#426572"/>
<path d="M122.421 33.3636C123.129 33.3494 123.665 31.4131 123.617 29.0389C123.57 26.6646 122.957 24.7514 122.249 24.7656C121.54 24.7798 121.005 26.7161 121.053 29.0903C121.1 31.4646 121.713 33.3778 122.421 33.3636Z" fill="white"/>
<path d="M122.507 39.6288C123.215 39.6146 123.77 38.6407 123.746 37.4535C123.722 36.2664 123.129 35.3155 122.42 35.3298C121.712 35.344 121.157 36.3179 121.181 37.505C121.205 38.6921 121.798 39.643 122.507 39.6288Z" fill="white"/>
<path d="M126.592 26.0069H23.5321C21.3127 26.0069 19.5135 27.8061 19.5135 30.0254V133.477C19.5135 135.696 21.3127 137.496 23.5321 137.496H126.592C128.811 137.496 130.61 135.696 130.61 133.477V30.0254C130.61 27.8061 128.811 26.0069 126.592 26.0069Z" fill="#EBF0F9"/>
<path d="M131.106 9.13221V53.5542L130.942 53.4303C130.606 53.1719 130.287 52.8922 129.987 52.5931L129.823 52.4257V52.8844C128.366 51.7476 127.28 50.2031 126.702 48.4473C126.44 47.6256 126.307 46.7681 126.307 45.9055C126.307 51.0459 121.619 55.2521 115.879 55.2521C114.312 55.2562 112.761 54.9346 111.325 54.3077C110.862 54.1054 110.414 53.8703 109.985 53.6044C109.762 53.4504 109.554 53.2874 109.362 53.1155C109.479 53.2294 109.603 53.3365 109.73 53.4504C107.139 51.7458 105.447 48.9998 105.447 45.9156C105.447 51.056 100.759 55.2621 95.0192 55.2621C92.9086 55.2705 90.8386 54.6819 89.0482 53.5642C86.3692 51.8697 84.5943 49.0701 84.5943 45.9156C84.5942 46.5709 84.5166 47.224 84.3632 47.8612C84.3063 47.6402 84.2561 47.4192 84.2226 47.1915C84.0695 48.6715 83.5365 50.0869 82.6754 51.3005C81.6448 52.5543 80.3457 53.5607 78.8741 54.2452C77.4024 54.9298 75.7958 55.275 74.1728 55.2554C72.5275 55.259 70.9012 54.9036 69.4074 54.2139C68.6343 53.8557 67.9068 53.4059 67.2408 52.8744C65.6015 51.5921 64.4457 49.7917 63.9623 47.7675C63.8225 47.1567 63.7517 46.5321 63.7513 45.9055C63.7509 46.5321 63.6801 47.1567 63.5403 47.7675C62.5692 52.0238 58.3463 55.2487 53.3231 55.2487C50.5676 55.2712 47.9039 54.259 45.8586 52.4123C45.4867 52.0711 45.1419 51.7017 44.8272 51.3072C43.8001 49.8631 43.2456 48.1363 43.2398 46.3643C43.2399 46.839 43.1996 47.3129 43.1193 47.7808C42.9795 47.1701 42.9087 46.5455 42.9083 45.9189C42.908 46.2863 42.8834 46.6532 42.8346 47.0173C42.195 51.632 37.7813 55.2554 32.4634 55.2554C30.8181 55.259 29.1918 54.9036 27.698 54.2139C26.9248 53.8557 26.1974 53.4059 25.5313 52.8744C24.953 52.4135 24.4284 51.8889 23.9674 51.3105C23.2706 50.3259 22.7859 49.2071 22.5442 48.0253C22.514 48.1727 22.4806 48.3234 22.4437 48.4674C22.1813 47.6456 22.048 46.7882 22.0486 45.9256C22.0416 47.942 21.331 49.8927 20.0393 51.4411L19.8752 51.6387C19.5704 51.9749 19.2413 52.2883 18.8906 52.5763V9.64123C19.259 9.52067 19.6307 9.41016 20.0091 9.30635L20.3708 9.21258C20.8631 9.08533 21.3754 8.97816 21.8677 8.8777V8.63993H42.7208V12.6585H43.7254V8.81742H43.2298V8.63993H63.4231V11.7845H63.5872V8.63993H84.1121V12.6585H85.4516V8.81742H84.6245V8.63993H125.811V8.88775L126.307 8.98151V12.6652H127.312V9.20923C128.168 9.42237 129.01 9.68741 129.833 10.0029L129.998 10.0665C130.332 10.1938 130.637 10.3244 130.952 10.465V10.4182C130.944 10.1023 130.852 9.79429 130.684 9.52669C130.516 9.25909 130.279 9.04182 129.998 8.89779C130.366 8.96477 130.738 9.04179 131.106 9.13221Z" fill="#BBD2E5"/>
<path d="M126.632 138.996H23.5722C21.9735 138.996 20.4403 138.361 19.3099 137.23C18.1794 136.1 17.5444 134.567 17.5444 132.968V29.5164C17.5444 27.9177 18.1794 26.3845 19.3099 25.2541C20.4403 24.1236 21.9735 23.4886 23.5722 23.4886H126.632C128.231 23.4886 129.764 24.1236 130.894 25.2541C132.025 26.3845 132.66 27.9177 132.66 29.5164V132.968C132.66 134.567 132.025 136.1 130.894 137.23C129.764 138.361 128.231 138.996 126.632 138.996ZM23.5722 27.5071C23.0393 27.5071 22.5283 27.7188 22.1515 28.0957C21.7746 28.4725 21.5629 28.9835 21.5629 29.5164V132.968C21.5629 133.501 21.7746 134.012 22.1515 134.389C22.5283 134.766 23.0393 134.977 23.5722 134.977H126.632C127.165 134.977 127.676 134.766 128.053 134.389C128.43 134.012 128.641 133.501 128.641 132.968V29.5164C128.641 28.9835 128.43 28.4725 128.053 28.0957C127.676 27.7188 127.165 27.5071 126.632 27.5071H23.5722Z" fill="#426572"/>
<path d="M23.1938 2.45467H44.0469V40.5206C44.0469 42.9364 43.0872 45.2533 41.379 46.9615C39.6708 48.6697 37.3539 49.6294 34.9381 49.6294H32.3026C31.1064 49.6294 29.922 49.3938 28.8168 48.936C27.7117 48.4783 26.7076 47.8073 25.8617 46.9615C24.1535 45.2533 23.1938 42.9364 23.1938 40.5206V2.45467Z" fill="#EF4F43"/>
<path d="M64.2403 2.45467H85.0933V40.5206C85.0933 42.9364 84.1337 45.2533 82.4254 46.9615C80.7172 48.6697 78.4003 49.6294 75.9846 49.6294H73.339C70.9232 49.6294 68.6063 48.6697 66.8981 46.9615C65.1899 45.2533 64.2302 42.9364 64.2302 40.5206V2.45467H64.2403Z" fill="#EF4F43"/>
<path d="M106.941 2.45467H127.794V40.5206C127.794 42.9364 126.834 45.2533 125.126 46.9615C123.418 48.6697 121.101 49.6294 118.685 49.6294H116.05C113.634 49.6294 111.317 48.6697 109.609 46.9615C107.901 45.2533 106.941 42.9364 106.941 40.5206V2.45467Z" fill="#EF4F43"/>
<path d="M20.8899 2.45467H23.5254V40.5206C23.5254 41.7182 23.2893 42.904 22.8305 44.0103C22.3717 45.1165 21.6992 46.1214 20.8516 46.9674C20.004 47.8135 18.9979 48.4841 17.8908 48.9408C16.7838 49.3976 15.5975 49.6316 14.3999 49.6294H11.7811C9.36651 49.6276 7.05138 48.6672 5.34461 46.9591C3.63783 45.2511 2.67908 42.9353 2.67908 40.5206V20.6722C2.67996 15.8421 4.59867 11.2099 8.01348 7.79381C11.4283 4.37775 16.0598 2.45734 20.8899 2.45467Z" fill="white"/>
<path opacity="0.5" d="M5.98096 21.1477V40.2862C5.98096 44.7904 9.58428 48.5779 14.353 49.4452C13.6703 49.5705 12.9775 49.6333 12.2834 49.6327C6.54691 49.6327 1.85522 45.4266 1.85522 40.2862V21.1477C1.85522 10.8234 11.1917 2.45467 22.7083 2.45467V2.82304C13.1642 4.54098 5.98096 12.0926 5.98096 21.1477Z" fill="#D9E2EF"/>
<path d="M73.118 6.60721C70.8777 6.60721 69.0626 8.23473 69.0626 10.244V44.4354C69.065 45.8881 69.4409 47.3158 70.1543 48.5812C67.1404 46.9436 65.0909 43.9632 65.0909 40.5776V6.38618C65.0909 4.3769 66.906 2.74937 69.1464 2.74937H85.944V6.60721H73.118Z" fill="#C6262F"/>
<path d="M114.898 6.60721C112.657 6.60721 110.842 8.23473 110.842 10.244V44.4354C110.845 45.8881 111.221 47.3158 111.934 48.5812C108.92 46.9436 106.871 43.9632 106.871 40.5776V6.38618C106.871 4.3769 108.686 2.74937 110.926 2.74937H127.724V6.60721H114.898Z" fill="#C6262F"/>
<path d="M44.0503 2.45467H64.9033V40.5206C64.9033 42.9364 63.9437 45.2533 62.2355 46.9615C60.5272 48.6697 58.2104 49.6294 55.7946 49.6294H53.1591C50.7433 49.6294 48.4264 48.6697 46.7182 46.9615C45.01 45.2533 44.0503 42.9364 44.0503 40.5206V2.45467Z" fill="white"/>
<path opacity="0.5" d="M47.523 5.71642V43.5346C47.5253 44.9873 47.9012 46.415 48.6147 47.6804C45.6007 46.0428 43.5513 43.0624 43.5513 39.6767V1.86194H64.4043V5.71642H47.523Z" fill="#D9E2EF"/>
<path d="M85.4248 2.45467H106.278V40.5206C106.278 42.9364 105.318 45.2533 103.61 46.9615C101.902 48.6697 99.5849 49.6294 97.1691 49.6294H94.5369C92.1211 49.6294 89.8043 48.6697 88.096 46.9615C86.3878 45.2533 85.4282 42.9364 85.4282 40.5206V2.45467H85.4248Z" fill="white"/>
<path opacity="0.5" d="M88.9009 5.71642V43.5346C88.9032 44.9873 89.2792 46.415 89.9926 47.6804C86.9787 46.0428 84.9292 43.0624 84.9292 39.6767V1.86194H105.782V5.71642H88.9009Z" fill="#D9E2EF"/>
<path d="M13.7536 51.1933H11.1181C8.17045 51.1897 5.34459 50.0172 3.26032 47.933C1.17605 45.8487 0.00354493 43.0228 0 40.0752L0 20.2302C0.00531942 14.8664 2.13841 9.7239 5.93116 5.93116C9.7239 2.13841 14.8664 0.00531942 20.2302 0H24.8716V40.0752C24.8681 43.0228 23.6956 45.8487 21.6113 47.933C19.527 50.0172 16.7012 51.1897 13.7536 51.1933ZM20.2302 4.01857C15.9319 4.02301 11.811 5.73243 8.77174 8.77174C5.73243 11.811 4.02301 15.932 4.01857 20.2302V40.0752C4.02123 41.9573 4.77006 43.7616 6.1009 45.0924C7.43173 46.4232 9.23597 47.1721 11.1181 47.1747H13.7536C15.6357 47.1721 17.4399 46.4232 18.7707 45.0924C20.1016 43.7616 20.8504 41.9573 20.8531 40.0752V4.01857H20.2302Z" fill="#426572"/>
<path d="M34.6066 51.1933H31.9744C29.0268 51.1897 26.201 50.0172 24.1167 47.933C22.0324 45.8487 20.8599 43.0228 20.8564 40.0752V0H45.728V40.0752C45.7245 43.0234 44.5515 45.8498 42.4665 47.9342C40.3815 50.0185 37.5548 51.1906 34.6066 51.1933ZM24.8716 4.01857V40.0752C24.8743 41.9573 25.6231 43.7616 26.9539 45.0924C28.2848 46.4232 30.089 47.1721 31.9711 47.1747H34.6066C36.4887 47.1721 38.2929 46.4232 39.6238 45.0924C40.9546 43.7616 41.7034 41.9573 41.7061 40.0752V4.01857H24.8716Z" fill="#426572"/>
<path d="M55.463 51.1933H52.8275C49.8799 51.1897 47.0541 50.0172 44.9698 47.933C42.8855 45.8487 41.713 43.0228 41.7095 40.0752V0H66.5811V40.0752C66.5776 43.0228 65.4051 45.8487 63.3208 47.933C61.2365 50.0172 58.4106 51.1897 55.463 51.1933ZM45.728 4.01857V40.0752C45.7307 41.9573 46.4795 43.7616 47.8104 45.0924C49.1412 46.4232 50.9454 47.1721 52.8275 47.1747H55.463C57.3451 47.1721 59.1494 46.4232 60.4802 45.0924C61.811 43.7616 62.5599 41.9573 62.5625 40.0752V4.01857H45.728Z" fill="#426572"/>
<path d="M76.3162 51.1933H73.674C70.7264 51.1897 67.9005 50.0172 65.8162 47.933C63.732 45.8487 62.5595 43.0228 62.5559 40.0752V0H87.4275V40.0752C87.424 43.0217 86.2524 45.8465 84.1696 47.9306C82.0868 50.0147 79.2626 51.188 76.3162 51.1933ZM66.5812 4.01857V40.0752C66.5838 41.9573 67.3327 43.7616 68.6635 45.0924C69.9943 46.4232 71.7986 47.1721 73.6807 47.1747H76.3162C78.1983 47.1721 80.0025 46.4232 81.3333 45.0924C82.6642 43.7616 83.413 41.9573 83.4157 40.0752V4.01857H66.5812Z" fill="#426572"/>
<path d="M97.1692 51.1933H94.537C91.5894 51.1897 88.7635 50.0172 86.6793 47.933C84.595 45.8487 83.4225 43.0228 83.4189 40.0752V0H108.291V40.0752C108.287 43.0234 107.114 45.8498 105.029 47.9342C102.944 50.0185 100.117 51.1906 97.1692 51.1933ZM87.4342 4.01857V40.0752C87.4368 41.9573 88.1857 43.7616 89.5165 45.0924C90.8473 46.4232 92.6516 47.1721 94.5337 47.1747H97.1692C99.0512 47.1721 100.855 46.4232 102.186 45.0924C103.517 43.7616 104.266 41.9573 104.269 40.0752V4.01857H87.4342Z" fill="#426572"/>
<path d="M118.026 51.1933H115.39C112.442 51.1897 109.617 50.0172 107.532 47.933C105.448 45.8487 104.276 43.0228 104.272 40.0752V0H129.144V40.0752C129.14 43.0228 127.968 45.8487 125.883 47.933C123.799 50.0172 120.973 51.1897 118.026 51.1933ZM108.291 4.01857V40.0752C108.293 41.9573 109.042 43.7616 110.373 45.0924C111.704 46.4232 113.508 47.1721 115.39 47.1747H118.026C119.908 47.1721 121.712 46.4232 123.043 45.0924C124.374 43.7616 125.122 41.9573 125.125 40.0752V4.01857H108.291Z" fill="#426572"/>
<path d="M55.3758 98.4785L67.1469 110.039C68.4429 111.311 70.8306 111.472 72.1199 110.039L92.5209 87.0691L95.4477 83.7739C96.7069 82.354 96.8475 80.2007 95.4477 78.8009C94.1651 77.5183 91.7406 77.3743 90.4747 78.8009L70.0738 101.77L67.1469 105.066H72.1199L60.3488 93.5055C57.1172 90.3309 52.1409 95.3005 55.3758 98.4785Z" fill="#426572"/>
</svg>
